<svg width="118" height="16" viewBox="0 0 118 40" fill="none" xmlns="http://www.w3.org/2000/svg">
<path fill-rule="evenodd" clip-rule="evenodd" d="M0 18.4701C0 17.6417 0.344897 16.9701 0.770349 16.9701H104.145C104.571 16.9701 104.916 17.6417 104.916 18.4701C104.916 19.2985 104.571 19.9701 104.145 19.9701H0.770349C0.344897 19.9701 0 19.2985 0 18.4701Z" fill="black"/>
<path fill-rule="evenodd" clip-rule="evenodd" d="M90.3699 1.63619C90.473 0.832493 90.8913 0.343852 91.304 0.544775C92.279 1.01939 93.2519 1.49787 94.2234 1.9757C99.5061 4.57396 104.75 7.15316 110.09 8.98822C110.338 9.07317 110.674 9.16014 111.084 9.26643C111.469 9.36588 111.918 9.48225 112.422 9.62969C113.413 9.9199 114.545 10.3159 115.478 10.8949C115.943 11.1835 116.395 11.5393 116.765 11.9927C117.122 12.4294 117.507 13.085 117.657 14.0543C117.821 15.1166 117.642 16.1253 117.32 16.953C117.01 17.7503 116.522 18.5114 115.887 19.2691C113.358 22.288 110.54 24.5264 107.726 26.5563C106.938 27.125 106.153 27.6759 105.373 28.2225C103.348 29.6433 101.363 31.0355 99.4762 32.638C99.3853 32.7153 99.1804 32.8839 98.8943 33.1193C98.1082 33.7663 96.7086 34.9181 95.3717 36.0683C94.4686 36.8453 93.628 37.5931 93.0732 38.1407C92.9449 38.2674 92.8409 38.3748 92.7594 38.4626C92.6285 38.9276 92.3748 39.2428 92.0833 39.2428C92.0324 39.2428 91.8697 39.2419 91.6971 39.0852C91.5988 38.9959 91.4478 38.8108 91.342 38.453C91.2286 38.0695 91.2212 37.6717 91.2537 37.3692C91.3039 36.9002 91.4525 36.6097 91.4871 36.5421L91.4892 36.538C91.5474 36.4239 91.608 36.333 91.6532 36.2694C91.825 36.0279 92.0924 35.7455 92.3765 35.465C92.9709 34.8782 93.8441 34.1028 94.749 33.3242C96.103 32.1593 97.6055 30.9227 98.3742 30.29C98.6231 30.0851 98.7952 29.9435 98.8602 29.8883C100.797 28.2435 102.854 26.8003 104.897 25.3673C105.666 24.8279 106.433 24.2899 107.191 23.7432C109.986 21.7268 112.687 19.5703 115.082 16.7113C115.649 16.0348 115.95 15.5057 116.092 15.1407C116.139 15.021 116.161 14.9408 116.171 14.8936C116.149 14.836 116.089 14.7088 115.945 14.5319C115.731 14.2698 115.417 14.0055 115.01 13.7533C114.2 13.2508 113.17 12.8825 112.193 12.5963C111.764 12.4707 111.328 12.3569 110.935 12.2544C110.479 12.1354 110.082 12.0316 109.823 11.9426C104.422 10.0868 99.1159 7.47669 93.8342 4.87865C92.8656 4.40219 91.8978 3.92613 90.9304 3.4552C90.5176 3.25428 90.2667 2.43988 90.3699 1.63619ZM116.178 14.8401C116.179 14.8398 116.179 14.8468 116.177 14.8618C116.177 14.8479 116.178 14.8404 116.178 14.8401ZM92.5502 38.7088C92.5502 38.7089 92.5508 38.7079 92.5521 38.706C92.5509 38.7079 92.5502 38.7088 92.5502 38.7088Z" fill="black"/>
</svg>
