<svg width="497" height="24" viewBox="0 0 497 24" fill="none" xmlns="http://www.w3.org/2000/svg">
<path fill-rule="evenodd" clip-rule="evenodd" d="M464.848 13.0717C464.597 13.1234 464.283 13.1654 463.924 13.2022C461.957 13.4044 459.915 13.2982 458.018 13.1995C457.303 13.1624 456.609 13.1263 455.947 13.1081C446.262 12.8426 436.579 12.524 426.901 12.205L426.607 12.1954C417.026 11.8796 407.449 11.564 397.871 11.2992C391.589 11.1256 384.601 10.9596 377.025 10.8003C407.362 13.2064 437.723 15.9784 468.145 19.0554C468.732 19.1148 469.379 19.1714 470.075 19.2252C481.821 19.4722 488.773 19.6648 492.353 19.7998C493.361 19.8378 494.109 19.8716 494.625 19.901C494.881 19.9156 495.09 19.9298 495.249 19.9437C495.328 19.9506 495.406 19.9584 495.477 19.9676L495.481 19.9682C495.524 19.9737 495.665 19.992 495.813 20.0379C495.858 20.0519 495.951 20.0825 496.06 20.138L496.062 20.1395C496.128 20.173 496.43 20.3268 496.651 20.6781C496.752 20.8663 496.874 21.3172 496.879 21.573C496.843 21.8198 496.678 22.2348 496.567 22.3997C496.333 22.7014 496.05 22.8264 495.985 22.855L495.983 22.856C495.804 22.9348 495.647 22.9612 495.62 22.9661C495.586 22.9721 495.555 22.9768 495.528 22.9804C495.507 22.9832 495.488 22.9853 495.473 22.987C495.343 23.001 495.177 23.0081 495.02 23.0129C494.682 23.0233 494.177 23.0281 493.548 23.028C489.01 23.0275 477.093 22.7708 469.931 22.2228C468.469 22.1921 466.932 22.1605 465.318 22.1281C409.309 21.0033 353.256 20.4592 297.192 19.9149C198.751 18.9592 100.275 18.0032 1.93754 13.9032C1.10983 13.8687 0.46682 13.1697 0.50133 12.342C0.535839 11.5143 1.2348 10.8713 2.06251 10.9058C100.36 15.0042 198.742 15.959 297.143 16.914C341.942 17.3488 386.745 17.7837 431.546 18.5152C395.073 15.1242 358.67 12.2086 322.273 9.87333C283.876 9.33101 240.02 8.86915 198.506 8.43194C180.455 8.24184 162.847 8.0564 146.322 7.87103C104.397 7.40073 69.4355 6.93079 51.9433 6.38595C47.5739 6.24986 44.2702 6.10841 42.2157 5.95943C41.2178 5.88707 40.4224 5.80726 39.9457 5.70678C39.8257 5.6815 39.6583 5.64149 39.4914 5.57499C39.4107 5.54285 39.2685 5.48072 39.1173 5.37261C38.9931 5.28381 38.6651 5.02554 38.5246 4.54108C38.3511 3.94271 38.5756 3.43434 38.8101 3.14653C39.0054 2.90682 39.2258 2.7835 39.3191 2.73479C39.5234 2.62813 39.7277 2.57441 39.8374 2.5477C40.3017 2.4346 41.106 2.34686 42.141 2.26529C43.2207 2.18021 44.6708 2.09413 46.5059 2.00655C50.1781 1.83131 55.4302 1.64829 62.4209 1.45617C140.4 -0.686882 217.706 0.904692 294.951 5.22629C294.86 5.02776 294.811 4.80607 294.815 4.5729C294.83 3.7446 295.513 3.08517 296.341 3.10001C305.745 3.26853 315.148 3.39933 324.55 3.53011C365.564 4.10063 406.563 4.67094 447.555 8.3719C448.991 8.50151 451.13 8.64819 453.44 8.80663C455.556 8.95175 457.816 9.10672 459.81 9.26746C461.832 9.43037 463.62 9.60235 464.564 9.78078C464.787 9.82291 465.07 9.88395 465.313 9.9813L465.317 9.98278C465.401 10.0165 465.711 10.1401 465.97 10.4281C466.125 10.5992 466.346 10.9246 466.368 11.3908C466.391 11.8765 466.186 12.2445 466.003 12.4596C465.719 12.7947 465.362 12.9233 465.274 12.955L465.268 12.9572C465.12 13.0108 464.971 13.0464 464.848 13.0717ZM314.739 6.39251C317.29 6.55037 319.841 6.71112 322.391 6.87472C352.023 7.2934 378.406 7.76007 397.954 8.30037C399.808 8.35161 401.661 8.40475 403.515 8.45942C377.228 7.2638 350.921 6.89766 324.552 6.53066C321.282 6.48515 318.011 6.43963 314.739 6.39251ZM248.471 5.96653C192.83 3.67057 137.102 2.89516 81.0544 4.015C98.8543 4.3107 121.36 4.59083 146.356 4.87122C162.872 5.05649 180.474 5.24186 198.52 5.43191C214.963 5.60507 231.775 5.78212 248.471 5.96653ZM40.5309 5.46691C40.5308 5.46681 40.5349 5.46558 40.5436 5.4634C40.5354 5.46591 40.5309 5.46702 40.5309 5.46691Z" fill="black"/>
</svg>
