<svg width="419" height="21" viewBox="0 0 419 21" fill="none" xmlns="http://www.w3.org/2000/svg">
<path fill-rule="evenodd" clip-rule="evenodd" d="M155.657 1.20597C164.625 1.45196 173.387 1.69227 181.816 1.79575C203.33 2.05987 224.75 2.66248 246.118 3.57436C275.636 3.24681 305.159 3.24635 334.66 3.46488C337.508 3.48598 340.585 3.65766 343.292 3.94547C345.956 4.22871 348.399 4.63758 349.898 5.17802C350.28 5.316 350.665 5.48454 350.997 5.69813C351.291 5.88785 351.755 6.24655 351.97 6.84783C352.24 7.60033 351.982 8.28682 351.609 8.73387C351.289 9.1173 350.858 9.3758 350.48 9.55956C349.998 9.79443 349.374 10.0134 348.615 10.222C368.831 11.9572 389.057 13.9288 409.328 16.1117C411.639 16.3606 413.377 16.5556 414.594 16.702C415.75 16.8412 416.552 16.9486 416.879 17.0294C416.92 17.0396 417.041 17.0695 417.173 17.1271L417.176 17.1282C417.224 17.1488 417.42 17.2339 417.614 17.4152C417.723 17.5276 417.938 17.8519 418.025 18.0705C418.086 18.3765 418.017 18.9857 417.892 19.2646C417.765 19.4512 417.5 19.7116 417.377 19.7957C417.292 19.8449 417.142 19.9145 417.077 19.9386C416.951 19.9827 416.845 20.0009 416.8 20.0081C416.698 20.0243 416.608 20.0292 416.559 20.0313C416.363 20.04 416.067 20.0315 415.74 20.0176C415.047 19.988 413.942 19.9201 412.493 19.8209C407.617 19.4871 398.658 18.7862 387.684 17.9277C385.595 17.7642 383.433 17.5951 381.211 17.4216C363.205 16.0156 341.336 14.3291 323.127 13.1246C310.213 13.7461 297.13 13.4704 284.229 13.1985C277.196 13.0503 270.218 12.9032 263.35 12.9032H173.69C172.861 12.9032 172.19 12.2316 172.19 11.4032C172.19 10.5748 172.861 9.90321 173.69 9.90321H245.179C222.215 9.19154 199.31 8.57273 176.418 8.01233C157.738 8.59596 139.081 9.35486 120.416 10.1141C104.502 10.7615 88.5808 11.4091 72.6343 11.9485C70.522 12.02 67.6216 12.1487 64.365 12.2931C58.6913 12.5449 51.9364 12.8446 46.3841 12.9732C42.0363 13.0739 38.274 13.0752 36.3005 12.846C35.8204 12.7902 35.3186 12.7082 34.919 12.5599C34.7456 12.4956 34.3838 12.3471 34.0906 12.0187C33.9236 11.8317 33.7479 11.5506 33.689 11.1779C33.6289 10.7972 33.7123 10.458 33.8389 10.2005C34.0561 9.75862 34.4173 9.51388 34.5806 9.41095C34.7891 9.27951 35.0216 9.17176 35.2458 9.08111C35.6989 8.89788 36.2992 8.71305 37.031 8.5214C41.7479 7.28601 46.573 6.22982 51.4837 5.32945C35.0215 4.99881 18.5221 4.666 1.96851 4.31839C1.14027 4.30099 0.482945 3.61547 0.500337 2.78723C0.51773 1.95898 1.20325 1.30166 2.0315 1.31905C20.4948 1.70676 38.8927 2.07609 57.2484 2.44458C61.4101 2.52812 65.5696 2.61162 69.7272 2.69528C97.8469 -0.379608 127.753 0.440647 155.657 1.20597ZM69.8271 5.69791C60.8212 6.69037 52.0087 8.08839 43.5108 10.0247C44.3958 10.0139 45.3339 9.9967 46.3146 9.97399C51.8519 9.84574 58.504 9.55028 64.1449 9.29974C67.4208 9.15424 70.3557 9.02388 72.5329 8.95023C88.4269 8.41259 104.337 7.7655 120.254 7.11817C122.308 7.03465 124.361 6.95112 126.415 6.86783C107.576 6.46172 88.7218 6.07814 69.8271 5.69791ZM176.408 5.0112C154.428 4.47328 132.461 3.98916 110.465 3.52837C125.57 3.38883 140.715 3.80243 155.383 4.20301C164.402 4.44932 173.241 4.6907 181.779 4.79552C182.203 4.80073 182.627 4.80606 183.051 4.81153C180.837 4.87541 178.622 4.94207 176.408 5.0112ZM237.786 6.67585C248.191 6.98951 258.607 7.32148 269.038 7.67497C261.388 7.26941 253.732 6.90233 246.071 6.57507C243.309 6.60577 240.548 6.63933 237.786 6.67585ZM296.88 6.31316C309.892 7.15837 322.896 8.11027 335.902 9.16221C337.49 8.99575 339.075 8.81037 340.655 8.60429C343.112 8.28383 345.006 7.96859 346.423 7.66518C346.647 7.61721 346.857 7.56996 347.054 7.52358C345.946 7.30013 344.553 7.09646 342.975 6.92866C340.37 6.65169 337.392 6.4852 334.638 6.4648C322.054 6.37159 309.468 6.31824 296.88 6.31316ZM349.398 8.2389C349.397 8.23898 349.391 8.23469 349.38 8.22571C349.393 8.23432 349.398 8.23882 349.398 8.2389Z" fill="black"/>
</svg>
