<svg width="491" height="27" viewBox="0 0 491 27" fill="none" xmlns="http://www.w3.org/2000/svg">
<path fill-rule="evenodd" clip-rule="evenodd" d="M488.861 3.21177C488.88 3.21333 488.876 3.21364 488.857 3.21146C488.858 3.21157 488.859 3.21167 488.861 3.21177ZM488.831 0.251199C488.857 0.24785 488.863 0.248243 488.838 0.250641C488.836 0.250792 488.834 0.250975 488.831 0.251199ZM278.351 4.68706C238.278 5.00756 198.205 5.33113 158.132 5.6547C113.601 6.01427 69.0696 6.37384 24.538 6.72921C23.7096 6.73582 23.0327 6.06963 23.0261 5.24122C23.0195 4.41282 23.6857 3.73591 24.5141 3.7293C69.0455 3.37394 113.577 3.01437 158.109 2.6548C239.481 1.99775 320.853 1.34071 402.226 0.709337C407.726 0.666657 413.227 0.622662 418.728 0.578665C438.178 0.42311 457.63 0.267534 477.082 0.170031C478.955 0.160642 482.698 0.15403 485.508 0.166581C486.906 0.172825 488.094 0.183866 488.702 0.202442C488.849 0.206953 488.99 0.212662 489.097 0.221135L489.102 0.221446C489.132 0.223732 489.262 0.233591 489.398 0.26623C489.436 0.2753 489.547 0.302664 489.679 0.36287C489.744 0.392451 489.872 0.455975 490.01 0.569799C490.137 0.674103 490.401 0.926076 490.511 1.35722C490.639 1.85721 490.489 2.29856 490.291 2.58354C490.124 2.8257 489.928 2.95651 489.842 3.00956C489.666 3.11755 489.508 3.16309 489.468 3.17465L489.466 3.1751C489.307 3.22095 489.152 3.23448 489.128 3.2366L489.125 3.23684C489.064 3.24274 488.996 3.24753 488.927 3.25165C488.787 3.26003 488.598 3.26836 488.36 3.2769C481.352 3.5287 474.33 3.61654 467.329 3.70411C464.583 3.73847 461.84 3.77279 459.101 3.81695C404.214 4.70223 349.354 6.00378 294.484 7.30556C290.174 7.4078 285.865 7.51003 281.556 7.61207H394.421C394.422 9.11207 394.422 10.6121 394.421 10.6121H129.362C107.96 10.6223 86.7709 10.6504 70.2632 10.7199C66.0159 10.7378 60.153 10.6994 53.6282 10.6567C51.2517 10.6411 48.7873 10.625 46.2812 10.6108C43.73 10.6093 42.3325 10.6065 41.9493 10.602C41.9105 10.6016 41.873 10.601 41.8431 10.6002C41.8329 10.5999 41.8005 10.599 41.7653 10.5966C41.7521 10.5957 41.7219 10.5923 41.6854 10.5876C35.0608 10.5591 28.3424 10.5541 22.3475 10.6172C17.2281 10.671 12.6973 10.7746 9.2463 10.9515C40.0924 16.4499 73.8708 17.3417 105.971 18.1892C114.472 18.4137 122.855 18.635 131.035 18.938C204.517 21.6595 277.962 22.0352 351.456 22.411C384.842 22.5818 418.238 22.7526 451.653 23.1434C452.481 23.1531 453.145 23.8325 453.135 24.6608C453.125 25.4892 452.446 26.1529 451.618 26.1432C418.246 25.7529 384.873 25.5822 351.498 25.4115C277.981 25.0354 204.455 24.6593 130.924 21.9359C122.819 21.6357 114.487 21.4161 106.019 21.1928C72.9294 20.3206 37.7628 19.3935 5.91272 13.3904C4.58064 13.1393 3.53655 12.9008 2.77704 12.6696C2.40007 12.5549 2.0516 12.4296 1.75778 12.2873C1.52638 12.1752 1.08016 11.9402 0.78586 11.4962C0.609412 11.23 0.45593 10.8378 0.511305 10.3672C0.564975 9.91103 0.791414 9.58345 0.981311 9.38547C1.31328 9.03938 1.73819 8.8726 1.97558 8.78944C2.52734 8.59613 3.2919 8.45919 4.14244 8.34974C7.59854 7.90498 14.3528 7.7011 22.316 7.61734C28.5272 7.55201 35.5644 7.55993 42.4684 7.5913C42.6049 7.59026 42.7625 7.58918 42.9403 7.58805C43.8742 7.58215 45.3873 7.57499 47.4026 7.5664C49.7031 7.55659 52.6594 7.54491 56.1594 7.53108C64.9273 7.49644 77.1069 7.44832 90.9343 7.38242C129.633 7.19799 181.211 6.87444 206.986 6.31814C230.775 5.80472 254.563 5.24971 278.351 4.68706ZM3.0078 9.55573C3.00855 9.55556 3.01783 9.5605 3.03338 9.57108C3.01483 9.56119 3.00705 9.5559 3.0078 9.55573ZM2.92257 11.6376C2.91013 11.6441 2.90299 11.647 2.90252 11.6469C2.90206 11.6467 2.90827 11.6434 2.92257 11.6376Z" fill="black"/>
</svg>
