<svg width="386" height="21" viewBox="0 0 386 21" fill="none" xmlns="http://www.w3.org/2000/svg">
<path fill-rule="evenodd" clip-rule="evenodd" d="M17.9335 20.0647C12.4489 20.0922 6.70977 19.8144 2.48605 18.4202C2.1888 18.3221 1.89573 18.2096 1.64603 18.074C1.52142 18.0064 1.36246 17.909 1.20903 17.7729C1.06824 17.648 0.825976 17.3976 0.702454 17.0031C0.555814 16.5345 0.636575 16.0554 0.870957 15.6775C1.06765 15.3603 1.32706 15.1835 1.47292 15.0975C1.76449 14.9255 2.08424 14.8408 2.29401 14.7931C3.1625 14.5956 4.69205 14.5114 6.29705 14.4615C7.7145 14.4175 9.26901 14.3983 10.7592 14.3799C12.8572 14.3541 14.8277 14.3298 16.1087 14.2399C19.5924 13.9954 23.0789 13.7449 26.5668 13.4944C32.4062 13.075 38.2497 12.6553 44.0905 12.2627C83.9675 9.58203 123.842 7.32801 163.738 5.6799C142.278 5.65627 120.819 5.52691 99.3569 5.23676C99.3676 5.2369 87.955 5.15662 80.4986 5.04522C78.6264 5.01725 76.9885 4.98715 75.8258 4.95557C75.2468 4.93985 74.7738 4.92346 74.4456 4.90618C74.287 4.89784 74.1355 4.88797 74.016 4.87504C73.9718 4.87027 73.8606 4.85809 73.7416 4.8293L73.7395 4.82883C73.7139 4.82306 73.4845 4.77153 73.2504 4.61699C73.1565 4.55495 72.7176 4.2588 72.6005 3.64181C72.4577 2.88927 72.9 2.39401 73.0894 2.22876C73.2789 2.06341 73.4637 1.98739 73.5228 1.96368C73.6051 1.93065 73.6745 1.91117 73.7142 1.90087C73.7943 1.88004 73.8629 1.86887 73.8992 1.86338C73.9775 1.8515 74.0567 1.84403 74.1196 1.83889C74.2525 1.82803 74.4272 1.81866 74.6356 1.81001C75.0579 1.79249 75.6846 1.77535 76.5387 1.75844C78.25 1.72454 80.91 1.69088 84.7518 1.6581C184.451 0.807456 284.177 0.233642 383.885 0.539446C384.714 0.541986 385.383 1.21562 385.381 2.04404C385.378 2.87246 384.704 3.54197 383.876 3.53943C373.961 3.50902 364.046 3.48731 354.131 3.47371L354.088 6.17975L350.766 6.12683C348.956 6.09801 347.146 6.06938 345.338 6.04135C335.341 5.88941 325.344 5.7783 315.347 5.69862C314.299 5.69327 313.251 5.68887 312.203 5.68548C222.758 5.39655 133.544 9.25614 44.2917 15.2559C38.4559 15.6482 32.6266 16.0669 26.7933 16.4859C24.1285 16.6773 21.4629 16.8688 18.7954 17.0578C21.1112 17.0327 23.4095 16.9578 25.5821 16.887L25.8818 16.8773C28.4008 16.7953 30.7598 16.7215 32.7196 16.7484C112.636 17.8458 192.884 16.8957 272.69 12.7876C281.199 12.3497 289.701 11.7627 298.191 11.0352C301.087 10.7869 303.969 10.5138 306.829 10.1552C306.471 10.1398 306.11 10.1254 305.747 10.1121C303.486 10.0289 301.212 9.98578 299.49 9.96297C298.464 9.94937 297.592 9.94289 297.056 9.9389C296.723 9.93643 296.519 9.93491 296.488 9.93325C295.66 9.88941 295.025 9.18323 295.069 8.35597C295.113 7.5287 295.819 6.89361 296.646 6.93745C296.623 6.93621 296.854 6.93741 297.418 6.94155C297.934 6.94535 298.662 6.95173 299.53 6.96323C301.265 6.98621 303.564 7.02969 305.858 7.11411C308.142 7.19822 310.454 7.32407 312.199 7.51531C313.061 7.60968 313.848 7.7265 314.441 7.87997C314.723 7.95287 315.065 8.05967 315.366 8.23186C315.542 8.33223 316.407 8.85511 316.293 9.92363C316.214 10.664 315.816 11.2107 315.341 11.562C314.913 11.878 314.431 12.0347 314.063 12.1249C313.68 12.2188 313.286 12.2712 312.97 12.3092C312.87 12.3211 312.78 12.3315 312.697 12.341C312.487 12.3652 312.326 12.3838 312.176 12.4089C307.61 13.175 303.007 13.6334 298.447 14.0242C289.924 14.7546 281.388 15.3439 272.844 15.7837C192.96 19.8958 112.646 20.8462 32.6784 19.7481C30.8017 19.7224 28.5165 19.7931 25.9793 19.8757L25.6676 19.8858C23.23 19.9653 20.5869 20.0515 17.9335 20.0647Z" fill="black"/>
</svg>
