<svg width="450" height="21" viewBox="0 0 450 21" fill="none" xmlns="http://www.w3.org/2000/svg">
<path fill-rule="evenodd" clip-rule="evenodd" d="M15.5267 1.96793C15.5445 1.13969 16.2302 0.482634 17.0585 0.50035C46.1407 1.12243 75.1993 2.31536 104.242 3.50761C105.87 3.57445 107.498 3.64128 109.126 3.70801C139.8 4.96535 170.458 6.18629 201.141 6.70013C282.087 8.05567 362.269 4.61054 443.084 0.978436C444.042 0.935386 445.762 1.05816 447.034 1.25121C447.617 1.33957 448.332 1.47267 448.811 1.69709C448.936 1.75562 449.174 1.87741 449.39 2.09847C449.623 2.33726 449.994 2.88581 449.802 3.61888C449.646 4.21608 449.209 4.51311 449.056 4.60833C448.857 4.73222 448.653 4.80871 448.501 4.85792C434.519 9.38157 416.848 10.1727 402.111 10.8324C399.927 10.9301 397.808 11.025 395.774 11.1287C318.77 15.0563 241.466 14.7322 164.331 14.4088C143.073 14.3197 121.828 14.2306 100.606 14.2306H92.6474C139.853 15.6572 187.067 16.7884 234.286 17.55C238.142 17.6122 241.102 17.642 242.518 17.6563L242.661 17.6578C242.997 17.6612 243.235 17.6637 243.356 17.6654C243.386 17.6658 243.413 17.6663 243.435 17.6668C243.444 17.667 243.461 17.6674 243.48 17.6683C243.482 17.6684 243.49 17.6687 243.502 17.6694C243.515 17.6701 243.532 17.6712 243.551 17.6729C243.551 17.6729 243.631 17.6788 243.728 17.699C243.808 17.7181 244.119 17.8396 244.331 17.9751C244.878 18.8112 244.467 20.2418 244.023 20.5412C243.9 20.5886 243.721 20.637 243.667 20.647C243.638 20.6515 243.59 20.6577 243.571 20.6597C243.538 20.6632 243.511 20.6647 243.502 20.6652C243.48 20.6664 243.462 20.6669 243.455 20.6671C243.439 20.6675 243.424 20.6678 243.414 20.6679C243.392 20.6681 243.363 20.6683 243.331 20.6685C243.148 20.6693 242.712 20.6692 241.995 20.6691C241.694 20.669 241.342 20.669 240.939 20.669H193.008C192.391 20.669 191.862 20.2965 191.631 19.7641C149.542 18.8931 107.458 17.7462 65.3846 16.3759C55.7461 16.0621 46.133 15.7285 36.5217 15.395C26.239 15.0383 15.9584 14.6816 5.65128 14.3491C4.65425 14.3169 3.85962 14.2928 3.26532 14.2748C3.10263 14.2698 2.95495 14.2654 2.82224 14.2613C2.51533 14.2519 2.28405 14.2446 2.13398 14.239C2.06223 14.2363 1.99531 14.2335 1.94542 14.2305L1.94389 14.2304C1.93171 14.2297 1.86474 14.2259 1.79372 14.2159C1.77577 14.2133 1.70817 14.2038 1.62534 14.1823C1.59129 14.1735 1.48521 14.1456 1.35888 14.0858C1.29141 14.0518 1.12945 13.9513 1.03824 13.8808C0.90423 13.754 0.640868 13.3643 0.544786 13.0935C0.500008 12.7405 0.636252 12.1049 0.786783 11.8474C0.910624 11.6984 1.14924 11.4941 1.2514 11.4296C1.42769 11.3281 1.58417 11.2876 1.62205 11.2778L1.62406 11.2772C1.72537 11.251 1.8084 11.2413 1.82737 11.2391L1.82893 11.2389C1.93162 11.2269 2.05466 11.2263 2.075 11.2262C2.0763 11.2262 2.07718 11.2262 2.07761 11.2262C2.13631 11.2255 2.21383 11.2252 2.30688 11.2251C2.49404 11.2248 2.76284 11.2254 3.10978 11.2262C3.17511 11.2263 3.24331 11.2265 3.31438 11.2267C4.00029 11.2283 4.9539 11.2306 6.17656 11.2306H100.606C121.857 11.2306 143.121 11.3197 164.391 11.4089C241.513 11.732 318.709 12.0555 395.621 8.13261C397.689 8.02715 399.83 7.93074 402.024 7.83192C413.99 7.29299 427.541 6.6827 439.463 4.14408C359.925 7.71286 280.886 11.036 201.091 9.69971C170.366 9.18518 139.674 7.96273 109.003 6.7055C107.377 6.63887 105.752 6.57214 104.127 6.50542C75.0774 5.31289 46.0461 4.12109 16.9943 3.49966C16.1661 3.48195 15.509 2.79617 15.5267 1.96793ZM2.12519 11.2359C2.11499 11.2353 2.11732 11.2353 2.12805 11.2361L2.12519 11.2359ZM243.372 17.6682C243.38 17.668 243.383 17.668 243.377 17.6681L243.372 17.6682Z" fill="black"/>
</svg>
